<svg id="Layer_1" data-name="Layer 1" xmlns="http://www.w3.org/2000/svg" viewBox="0 0 2501 2501"><defs><style>.cls-1{fill:#c9c16c;stroke:#4c2f06;}.cls-1,.cls-2{stroke-miterlimit:10;}.cls-2{fill:#fff;stroke:#6b461b;stroke-linecap:round;stroke-width:40px;}.cls-3{fill:#4c2f06;}</style></defs><circle class="cls-1" cx="1250.5" cy="1250.5" r="1250"/><path class="cls-2" d="M2214.62,2077.21c-87.54,34.07-141.35-1.75-217.68,3.63-222.76,15.7-372.66,267.92-387.44,255.25-13.35-11.44,158-174.83,120.81-241.62-59.63-107.13-672.48,4.26-876.95-17.26-35.68-3.75-83.25-14.28-118.08-49.11A166.68,166.68,0,0,1,686.17,1910v-891c0-92,75.24-167.2,167.19-167.2H2214.62c92,0,167.19,75.24,167.19,167.2-1.9,373.93-4.37,653.93,0,790.65.87,27.27,3.5,95.41-36.41,160.79C2303.15,2039.71,2235.7,2069,2214.62,2077.21Z" transform="translate(-283.68 -264.3)"/><path class="cls-3" d="M694.81,1917.21c26.34-61.56,33.69-128.36,36.34-194.7,2.63-65.85.67-133.11,9.84-198,4.55-32.2,11.88-64.12,23.73-94.45,11.2-28.69,27.44-56.11,44.3-82.23,34.22-53,73.24-104.46,91-166,.45-1.56.88-3.11,1.38-4.65.27-.84.57-1.67.86-2.51.65-1.9.37-1,.18-.54a21.24,21.24,0,0,1,2.48-4.41c-1,1.25.1,0,.29-.15.86-.79.91-.83.14-.13l.8-.44c-.38,1-2.69-.34-.05.36-.89-.24.64.27.81.36.89.45,2.88,1.65,4.12,2.49,2.9,2,6.22,4.42,8.57,6.28,11.86,9.34,23.35,20.49,31.92,32.4,17.89,24.86,27.09,55.94,19.78,85.5a71.88,71.88,0,0,1-7.92,19.79c-6.45,11.17,10.83,21.25,17.27,10.1,17.51-30.36,16.28-68.11,2.76-99.68-6.62-15.46-16.28-29.46-27.6-41.85a182.2,182.2,0,0,0-17.41-16.62c-6.37-5.34-13.12-11.18-20.45-15.17-8.93-4.86-19.29-4.88-26.88,2.47-5.74,5.55-8.18,13.64-10.34,21.08a282.8,282.8,0,0,1-16.8,43.77c-14,29.26-31.84,56.47-49.78,83.43s-36.37,54.14-51.47,83a380.68,380.68,0,0,0-34.15,94.14c-14.94,67.4-14.69,136.93-16.32,205.59C710.65,1753.6,707.77,1821,686,1885c-2.54,7.43-5.44,15.17-8.42,22.15-2.13,5-1.48,10.72,3.58,13.68,4.21,2.46,11.55,1.4,13.69-3.59Z" transform="translate(-283.68 -264.3)"/><path class="cls-3" d="M801.08,1473.81c.21-1.69-.11.79-.13.92.07-.38.11-.78.16-1.16.1-.67.21-1.34.32-2,.24-1.44.5-2.88.79-4.3q.9-4.42,2.1-8.77t2.61-8.3c.48-1.37,1-2.73,1.51-4.08.25-.63.5-1.26.76-1.88.15-.37.67-1.61,0-.14-.69,1.63.08-.18.18-.4a129.16,129.16,0,0,1,8-15.36c1.53-2.53,3.16-5,4.87-7.44.77-1.1,1.56-2.18,2.36-3.24,1.43-1.91-1.06,1.32,0,0l1.61-2A124.19,124.19,0,0,1,838.12,1403q3.12-2.87,6.43-5.51c.3-.24.6-.46.89-.7-.1.08-2,1.5-.69.53l1.58-1.18c1.14-.82,2.29-1.63,3.45-2.42a118.05,118.05,0,0,1,16.24-9.12c1.5-.7,3.07-1.29,4.54-2-.2.11-2.16.9-.55.24l.92-.38c.93-.38,1.85-.74,2.78-1.1,3.1-1.21,6.22-2.34,9.36-3.42,12.7-4.36,25.67-7.93,38.26-12.62a162,162,0,0,0,37-19c22.25-15.64,40.6-35.75,59.94-54.68a783.92,783.92,0,0,1,63.33-55.67c1.37-1.07,2.74-2.15,4.11-3.21l.36-.28c-1.07.82-.11.08.09-.07l2.48-1.9q4.14-3.17,8.32-6.27,8.49-6.32,17.16-12.38c5.56-3.9,11.1-8,17-11.31.77-.42,1.56-.84,2.35-1.23a6.6,6.6,0,0,0,1.2-.56s-1.91.75-.88.37a35.48,35.48,0,0,1,5-1.51,6.12,6.12,0,0,0,1-.18c-1.76.67-1.67.17-.74.12s1.6-.09,2.41-.07c.44,0,2.74.26.85,0s.54.14,1.06.27,1.23.32,1.83.52c.34.11.68.25,1,.36,1.51.51-.77-.29-.88-.37,1.07.86,2.69,1.36,3.87,2.13.54.36,1.07.75,1.61,1.13.87.61-1-.76-.91-.7.24.26.6.49.87.73a38.59,38.59,0,0,1,3.31,3.21c.46.5.91,1,1.34,1.53l.74.91c.69.82-.71-.94-.67-.87.78,1.34,1.81,2.55,2.62,3.88s1.48,2.59,2.15,3.92c.33.65.64,1.31,1,2a5.41,5.41,0,0,0,.51,1.14c-.5-.43-.82-2-.17-.38a70.65,70.65,0,0,1,2.86,8.88c.38,1.51.71,3,1,4.57.13.72.26,1.44.37,2.16l.15.93c.35,2.24-.27-2.43,0-.17a100.29,100.29,0,0,1,.22,19c-.07.85-.15,1.7-.24,2.54-.05.41-.38,3-.13,1.21s-.11.74-.19,1.21q-.19,1.26-.42,2.52c-.58,3.25-1.3,6.47-2.14,9.66s-1.78,6.19-2.83,9.22q-.86,2.45-1.77,4.84c-.29.75-.58,1.49-.88,2.24-.24.59-1.7,3.63-.44,1.09-3,6.14-5.71,12.41-8.95,18.46s-6.79,12.16-10.32,18.16c-14.28,24.21-27.91,48.64-39.72,74.17a731.86,731.86,0,0,0-31.7,80.69q-3.2,9.82-6.1,19.74c-1.47,5,1.78,11.11,7,12.3a10.2,10.2,0,0,0,12.3-7q6.11-20.82,13.47-41.25,3.67-10.18,7.66-20.25,2-5,4.06-10c.31-.75.62-1.5.94-2.25l.54-1.29c.68-1.64-.1.22-.2.46.69-1.73,1.46-3.42,2.2-5.13a703.39,703.39,0,0,1,39-76.81c14.37-24.49,30.18-49.2,36.32-77.32a112.9,112.9,0,0,0,1.36-43.18c-2.31-13.46-8.14-27.1-17.9-36.86-5-5-11.22-9.08-18.08-10.83-8.37-2.14-16.56-.56-24.29,3-6.35,2.9-12.05,7.15-17.76,11.11q-8.82,6.14-17.48,12.51a801.79,801.79,0,0,0-68,56c-10.38,9.56-20.42,19.46-30.37,29.46-9.52,9.56-19.06,19.12-29.3,27.91q-3.8,3.25-7.73,6.35c-.26.2-.52.39-.76.6,1.93-1.57.93-.73.49-.39l-2.06,1.54q-2.05,1.53-4.17,3a142.21,142.21,0,0,1-17.05,10.23c-1.39.71-2.8,1.38-4.21,2-.8.38-1.61.74-2.42,1.1l-1.22.53c-1.7.75,1.41-.57.24-.1-3.19,1.29-6.38,2.54-9.62,3.7-6.48,2.33-13.05,4.39-19.61,6.46-13.71,4.32-27.44,8.76-40.37,15.14a125,125,0,0,0-30.89,21.79,138.76,138.76,0,0,0-37.68,64.16,147.28,147.28,0,0,0-3.57,19.23c-.3,2.35,1.33,5.47,2.93,7.07a10,10,0,0,0,14.14,0,11.83,11.83,0,0,0,2.93-7.07Z" transform="translate(-283.68 -264.3)"/><path class="cls-3" d="M1176.25,1296.57q.66-.93,1.35-1.83l-1.56,2a48.51,48.51,0,0,1,8.35-8.35l-2,1.56a40.8,40.8,0,0,1,8.81-5.17l-2.39,1a32.69,32.69,0,0,1,7.9-2.16l-2.66.36a28.2,28.2,0,0,1,6.87,0l-2.66-.36a28.52,28.52,0,0,1,7,1.94l-2.39-1a35.33,35.33,0,0,1,7.22,4.24l-2-1.56a44,44,0,0,1,7.78,7.83l-1.56-2a53.4,53.4,0,0,1,6.63,11.49l-1-2.39a68.25,68.25,0,0,1,4.52,17l-.35-2.65a94.48,94.48,0,0,1-.34,24.63l.36-2.66a149.78,149.78,0,0,1-10.24,37.87l1-2.39c-2.86,6.77-6.55,13.15-9.74,19.76-4.47,9.26-8.58,18.7-12.57,28.18-4.69,11.17-9.12,22.46-13.39,33.8-5.37,14.27-10.48,28.63-15.45,43q-9.14,26.57-17.66,53.34c-.78,2.44-1.56,4.87-2.33,7.31-1.59,5,1.86,11.14,7,12.3a10.2,10.2,0,0,0,12.3-7c7-22,14.21-44,21.79-65.83,5.87-16.9,12-33.74,18.46-50.41q4.37-11.24,9-22.34l-1,2.39c3.82-9,7.82-18,12.14-26.83,1.73-3.54,3.54-7,5.38-10.52a120.58,120.58,0,0,0,5.93-13.48,150.34,150.34,0,0,0,6.63-22.37c2.11-9.83,3.63-20,3.39-30.13-.48-19.85-7.41-40.42-23.56-52.9a40.57,40.57,0,0,0-14.54-7.36,38.28,38.28,0,0,0-17-.32c-9.64,1.84-18.72,7.86-25.27,15a71,71,0,0,0-5.42,6.81c-1.42,2-1.63,5.42-1,7.71a10.25,10.25,0,0,0,4.6,6,10.09,10.09,0,0,0,7.71,1,11.34,11.34,0,0,0,6-4.59Z" transform="translate(-283.68 -264.3)"/><path class="cls-3" d="M1217.81,1408.75a83.84,83.84,0,0,1,8.16-7.25l-2,1.56a73,73,0,0,1,16-9.43l-2.39,1a57.77,57.77,0,0,1,14.48-4l-2.66.36a46.18,46.18,0,0,1,11.92,0l-2.66-.36a38.65,38.65,0,0,1,9.45,2.55l-2.39-1a34.82,34.82,0,0,1,7.65,4.45l-2-1.57a38.62,38.62,0,0,1,6.7,6.76l-1.56-2a49.37,49.37,0,0,1,6.19,10.7l-1-2.39c.35.83.68,1.67,1,2.51l-.35-2.66a155.68,155.68,0,0,1-.23,39.18l.36-2.66a162.87,162.87,0,0,1-11.41,41.25l1-2.39a195.39,195.39,0,0,1-19.81,35.59q-3.17,4.56-6.58,9l1.57-2a257.33,257.33,0,0,1-20.75,23.63q-9.4,9.49-19.68,18.09c-3.12,2.63-6.31,5.19-9.54,7.69l2-1.57c-2.69,2.08-5.41,4.1-8.16,6.09a10.79,10.79,0,0,0-4.59,6,10.2,10.2,0,0,0,1,7.7,10,10,0,0,0,6,4.6c2.48.56,5.56.54,7.71-1a322.11,322.11,0,0,0,33.2-27.37,257.86,257.86,0,0,0,39.42-47.15c12.72-19.76,22.34-41.94,26.66-65.1a163.93,163.93,0,0,0,2.48-42.7c-.15-1.94-.33-3.87-.56-5.81a18.66,18.66,0,0,0-1-4.92c-.64-1.61-1.31-3.22-2-4.8a48.41,48.41,0,0,0-4.7-8.21,52.58,52.58,0,0,0-12-12.22c-9.06-6.61-21.29-9.1-32.33-7.87a69.7,69.7,0,0,0-10.34,1.81,75.4,75.4,0,0,0-10.51,3.82,81.19,81.19,0,0,0-18.3,11.35,85.83,85.83,0,0,0-7.52,6.75c-3.68,3.72-4,10.48,0,14.14a10.18,10.18,0,0,0,14.15,0Z" transform="translate(-283.68 -264.3)"/><path class="cls-3" d="M1251,1548.18c40.35,3.57,82.68-3.14,113.18-31.65,15.78-14.75,28.07-33.32,38.66-52,10.44-18.45,19.31-37.75,27.56-57.27,3.61-8.55,7.11-17.14,10.57-25.75,1.64-4.08,3.27-8.16,4.92-12.23,2-4.8,3.33-8.16,6-13.56a96.45,96.45,0,0,1,8-13.51c.12-.17,1.36-1.8.71-1s.64-.75.77-.91c.74-.88,1.5-1.73,2.29-2.56s1.83-1.85,2.79-2.72c.49-.44,1-.86,1.48-1.28,1.28-1.1-.15.06.68-.51a48.92,48.92,0,0,1,6.38-3.72c1.45-.7-.18,0,1.45-.56,1.15-.37,2.3-.77,3.47-1.09s2.3-.59,3.46-.83l1.37-.26c.26,0,2.21-.35,1-.19s.81-.08,1.07-.1l1.47-.11a44.68,44.68,0,0,1,4.91,0l1.47.12c1.65.15-1.37-.31.24,0,1.1.24,2.17.55,3.27.82,1.71.41.78.23.27,0a17.8,17.8,0,0,1,1.68.87,15.28,15.28,0,0,1,1.59,1c-.94-.71-.18-.12.33.42.34.37.67.78,1,1.11.85.79-1.36-2.17-.23-.27.62,1,1.18,2.14,1.8,3.19s-.84-2.43-.09-.17c.18.56.38,1.1.55,1.66a38.34,38.34,0,0,1,1,4.36c.08.45.26,2.72.16.88s0,.55.07,1c.15,1.73.22,3.47.22,5.21a90.07,90.07,0,0,1-.6,10.51c-.06.58-.55,3.77-.1,1-.14.87-.26,1.75-.4,2.62-.36,2.2-.77,4.4-1.22,6.58a229.77,229.77,0,0,1-7.24,26.29c-7,20.77-15.06,38.57-25.52,58.37a477.9,477.9,0,0,1-36.54,58.79c-1.47,2-3,4-4.46,6-1.36,1.8-2.6,3.38-4.63,5.91q-6.27,7.83-12.67,15.54c-8.68,10.39-17.64,20.57-27.19,30.17a239.67,239.67,0,0,1-29.29,25.51,270.35,270.35,0,0,1-34.59,20.67c-24.55,12.63-49.75,23.71-72.52,39.51-23.8,16.51-45.52,35.84-67.42,54.74-34,29.35-68.73,58.67-98.3,92.65a387.5,387.5,0,0,0-55.17,82.72,454.2,454.2,0,0,0-39.92,124.54c-2.35,13.74-4.15,27.59-5.48,41.47-.52,5.38,5,10,10,10,5.84,0,9.48-4.6,10-10a486.45,486.45,0,0,1,13.63-77.23q4.29-16.39,9.81-32.42,2.58-7.47,5.42-14.84c.85-2.2,1.72-4.4,2.61-6.58.46-1.14.93-2.28,1.4-3.42.17-.42.35-.84.53-1.26-.82,1.93.33-.78.4-.93A395.43,395.43,0,0,1,1059,1870q5.38-9.2,11.28-18.07,3.95-6,8.12-11.74,1.8-2.51,3.65-5c.71-.94,1.41-1.88,2.12-2.81l1.08-1.4.32-.41c26.28-33.35,58.08-61.8,90-89.64,21.48-18.76,42.85-37.78,65.18-55.52a328.69,328.69,0,0,1,33.5-23.57c11.92-7.25,24.42-13.45,36.93-19.58,25-12.25,49.25-24.85,70.67-42.85,20.87-17.56,38.65-38.42,55.72-59.6a481.94,481.94,0,0,0,71.18-120.61c7.14-17.55,13.41-35.85,16.24-54.65,2.1-14,3.37-30.25-4.17-43-11.6-19.59-39.47-17.82-57.3-8.65-20.88,10.75-30.2,34.24-38.43,54.76-3.12,7.76-6.22,15.51-9.4,23.24-.83,2-1.68,4.07-2.53,6.11-.23.56-.47,1.12-.7,1.67.16-.38.71-1.66-.07.16l-1.47,3.45q-3.09,7.18-6.32,14.32c-9.17,20.15-19.31,40-31.73,58.37q-2.16,3.19-4.42,6.31c-.79,1.09-1.6,2.17-2.41,3.26-.12.16-1.14,1.5-.27.36-.4.53-.82,1-1.23,1.57-3.22,4-6.61,8-10.21,11.66a121.75,121.75,0,0,1-10.33,9.47c-1.9,1.55.73-.49-.38.31-.6.42-1.18.87-1.77,1.3q-2.27,1.63-4.62,3.13a99.47,99.47,0,0,1-9.66,5.43c-1.73.86-3.5,1.67-5.28,2.43,2.14-.91-.77.29-1.37.52q-1.76.67-3.54,1.29a123.61,123.61,0,0,1-13.47,3.81,115.3,115.3,0,0,1-14.5,2.4,203,203,0,0,1-38.43-.06c-5.39-.48-10,4.93-10,10,0,5.8,4.6,9.52,10,10Z" transform="translate(-283.68 -264.3)"/><path class="cls-3" d="M1442.87,1376.66c6.74-19.56-.39-42.64-14.89-56.85a67.61,67.61,0,0,0-27.31-15.93,83.21,83.21,0,0,0-15.72-3.05,68.08,68.08,0,0,0-13.54-.17c-11,1-22.46,4.58-29.72,13.42a41.56,41.56,0,0,0-8,15.07,52.74,52.74,0,0,0-1.91,15.57,86,86,0,0,0,2.31,16.49,126.57,126.57,0,0,0,3.77,13.52,117.79,117.79,0,0,0,8.31,18.64c7.19,13.05,13.6,26.52,19.54,40.18q1.38,3.2,2.74,6.4l-1-2.39q5.43,12.92,10.38,26a10.82,10.82,0,0,0,4.6,6,10,10,0,0,0,13.68-3.59c1.19-2.25,2-5.22,1-7.7-5.51-14.53-11.39-28.92-17.8-43.08-4.44-9.81-9.16-19.5-14.27-29-2.18-4-4.47-8-6.26-12.22l1,2.39a115.15,115.15,0,0,1-7.91-28.54l.36,2.66a50.83,50.83,0,0,1-.07-13.1l-.35,2.66a37.81,37.81,0,0,1,2.53-9.46l-1,2.39a29.68,29.68,0,0,1,3.5-6.06l-1.56,2a26.59,26.59,0,0,1,4.54-4.58l-2,1.56a30,30,0,0,1,6.29-3.67l-2.39,1a40.65,40.65,0,0,1,10.46-2.74l-2.66.35a67.83,67.83,0,0,1,17.26.18l-2.66-.36a68.13,68.13,0,0,1,16.89,4.51l-2.39-1a57.88,57.88,0,0,1,12.73,7.36l-2-1.56a50.54,50.54,0,0,1,8.83,8.77l-1.56-2a51.47,51.47,0,0,1,6.47,11.15l-1-2.39a49.89,49.89,0,0,1,3.32,12.11l-.36-2.66a44.3,44.3,0,0,1,.08,11.33l.35-2.66a39.32,39.32,0,0,1-1.82,7.73,10,10,0,0,0,19.29,5.32Z" transform="translate(-283.68 -264.3)"/><path class="cls-3" d="M1490.62,1443.46a342.91,342.91,0,0,0,43.4,46,363.55,363.55,0,0,0,51.33,37.53c8.69,5.29,17.44,10.52,25.5,16.73l-2-1.56a85.71,85.71,0,0,1,15.27,14.82l-1.57-2a58.49,58.49,0,0,1,7.54,12.75l-1-2.39c.29.69.57,1.38.83,2.07a10.82,10.82,0,0,0,4.6,6,10,10,0,0,0,13.68-3.59c1.19-2.25,1.95-5.22,1-7.7a70.07,70.07,0,0,0-5.32-11.29,76.72,76.72,0,0,0-7.2-9.9,100.72,100.72,0,0,0-16.58-15.1c-11.25-8.54-23.75-15.21-35.57-22.89q-11.3-7.35-22-15.61l2,1.56a339.54,339.54,0,0,1-47.91-45.16q-6.14-7-11.89-14.38c-1.47-1.88-4.82-2.93-7.07-2.93a10.18,10.18,0,0,0-7.07,2.93,10.05,10.05,0,0,0-2.93,7.07l.36,2.66a10,10,0,0,0,2.57,4.41Z" transform="translate(-283.68 -264.3)"/><path class="cls-3" d="M1428.26,1537.85c39,24.32,77.47,49.75,114,77.73l1.23,1c1.36,1-.93-.73.41.32.8.61,1.59,1.24,2.39,1.86,1.82,1.42,3.62,2.84,5.43,4.28q5.11,4.08,10.16,8.26c5.75,4.78,11.41,9.67,16.9,14.74,4.61,4.25,9.12,8.62,13.38,13.22,1.74,1.87,3.45,3.79,5.08,5.76l1.15,1.41c1.06,1.3.4,0-.33-.45.74.46,1.42,1.9,1.93,2.63,9.92,14.21,16.41,30.72,23.23,46.51,7.88,18.26,17,35.23,31.58,49,22.9,21.73,51.68,37.35,80.25,50.3,7.36,3.34,14.8,6.77,22.43,9.47,4.69,1.66,9.48,3,14.16,4.78q4.55,1.68,9,3.51l2.24.92c2.53,1.05-2.11-.91.43.18,1.63.71,3.27,1.41,4.89,2.13,7.34,3.26,14.58,6.73,21.75,10.35,18.37,9.27,36.26,19.48,53.87,30.12,23.78,14.35,47,29.53,70,45.13,29.71,20.18,58.92,41.09,87.83,62.4q54.28,40,107.3,81.77,14.88,11.67,29.7,23.43c4.23,3.35,10,4.13,14.14,0,3.48-3.48,4.26-10.77,0-14.14Q2116,2029.34,2058,1985.65c-30.74-23.06-61.78-45.72-93.32-67.66-24.36-16.93-49-33.46-74.17-49.19-19-11.87-38.25-23.31-58-33.85-14.89-7.94-30.08-15.29-45.69-21.71-9.88-4.07-20.16-7-30-11l-2.61-1.08c-1.52-.63,2.18.93.6.25l-1.93-.83q-3.72-1.6-7.42-3.27-9.3-4.21-18.42-8.84a318.63,318.63,0,0,1-41.71-25q-2.41-1.74-4.77-3.54c1.43,1.1-.8-.62-1.2-1-.82-.65-1.64-1.31-2.45-2-3.17-2.62-6.25-5.36-9.2-8.23a111,111,0,0,1-7.76-8.32c-.61-.73-1.2-1.47-1.79-2.21,1.07,1.35.08.1-.38-.53-1.27-1.76-2.47-3.58-3.61-5.42-11.22-18.08-17.22-38.68-27.35-57.29-3.33-6.1-6.48-12.4-10.61-18a140.22,140.22,0,0,0-10.93-13,338.54,338.54,0,0,0-31-28.27c-33-27.2-68.3-51.59-104.11-74.87q-15.8-10.26-31.79-20.22c-4.58-2.85-11-1-13.68,3.59a10.15,10.15,0,0,0,3.59,13.68Z" transform="translate(-283.68 -264.3)"/><path class="cls-3" d="M1646.6,1557.67q-3.61-4.18-7-8.57l1.56,2a206.88,206.88,0,0,1-22.59-36.65q-2.07-4.32-3.94-8.74l1,2.39a182,182,0,0,1-12.69-46.47l.35,2.66c-.84-6.38-1.34-12.78-1.73-19.2-.34-5.7-1-11.4-1.13-17.11a80.79,80.79,0,0,1,.6-12.82l-.36,2.66a44.32,44.32,0,0,1,2.81-10.82l-1,2.38a29,29,0,0,1,3.7-6.41l-1.57,2a24.53,24.53,0,0,1,4.11-4.1l-2,1.57a24.18,24.18,0,0,1,5.1-3l-2.39,1a32.94,32.94,0,0,1,8.16-2.13l-2.65.36a99.46,99.46,0,0,1,13.92-.49q7.58.09,15.15.49,15.13.8,30.18,2.82l-2.66-.36c17.41,2.36,34.88,5.69,51.67,10.89,4.63,1.44,9.21,3.07,13.69,4.94l-2.39-1a123.26,123.26,0,0,1,27.14,16l-2-1.57a230.79,230.79,0,0,1,24.43,22.35c7.58,7.84,15,15.84,22.22,24,4,4.63,8,9.35,11.77,14.22l-1.56-2c7.88,10.2,15,21.08,20.09,33l-1-2.39a85,85,0,0,1,6,21.2l-.35-2.66a68,68,0,0,1,0,17.92l.36-2.66a40.2,40.2,0,0,1-2.31,9.5l1-2.38a19.07,19.07,0,0,1-2.38,4.16l1.57-2a14,14,0,0,1-2,2l2-1.57a11.71,11.71,0,0,1-2.58,1.51l2.39-1a14.11,14.11,0,0,1-3,.76l2.65-.35a32.49,32.49,0,0,1-8-.34l2.66.36a98,98,0,0,1-24.45-6.87l2.39,1a150.62,150.62,0,0,1-32.76-19.75l2,1.57c-19-14.73-35.22-32.59-53.27-48.4Q1720,1485,1711.9,1479c-4.5-3.39-9-6.81-13.83-9.78a51.26,51.26,0,0,0-16.57-7,44.46,44.46,0,0,0-20.42.62c-10.57,2.87-20,9.52-27.34,17.52a10.51,10.51,0,0,0-2.93,7.07,10.14,10.14,0,0,0,2.93,7.07c3.85,3.54,10.36,4.12,14.14,0a63.33,63.33,0,0,1,7.6-7l-2,1.56a48.43,48.43,0,0,1,10.38-6.18l-2.39,1a38.46,38.46,0,0,1,9.53-2.65l-2.66.36a34.05,34.05,0,0,1,8.5,0l-2.66-.36a36,36,0,0,1,9,2.51l-2.39-1c8.35,3.59,15.77,9.5,22.92,15l-2-1.56c20.38,15.78,37.57,35.15,57.22,51.78,19.07,16.13,41.17,30.63,66.2,35,7.79,1.36,16.94,2.79,23.93-2,6.15-4.22,9.68-10.81,11.18-18a79.44,79.44,0,0,0-1.52-37.65c-6.82-24.22-22.77-44.9-39.15-63.47-8-9-16.16-17.87-24.63-26.41a207.37,207.37,0,0,0-29.24-25c-22.34-15.42-49.42-21.93-75.82-26.44a396.3,396.3,0,0,0-43.31-5q-10.34-.61-20.71-.65c-6.8,0-14,.14-20.47,2.51a37.1,37.1,0,0,0-10.75,6,32.89,32.89,0,0,0-5.95,6.51,40.08,40.08,0,0,0-6.31,14.31c-2.4,10.07-2.08,20.38-1.2,30.61.62,7.19.85,14.41,1.64,21.59a198,198,0,0,0,6.88,35.06,206.53,206.53,0,0,0,29.43,59.83c4.19,5.91,8.67,11.63,13.38,17.13a10,10,0,0,0,17.07-7.08,11.17,11.17,0,0,0-2.92-7.07Z" transform="translate(-283.68 -264.3)"/><path class="cls-3" d="M1661.63,1384.15c1.67-14.83-2.92-29.45-4.9-44l.36,2.66a68.8,68.8,0,0,1-.19-17.79l-.35,2.66a43.23,43.23,0,0,1,2.85-10.84l-1,2.39a30.84,30.84,0,0,1,3.78-6.53l-1.57,2a26.75,26.75,0,0,1,4.37-4.4l-2,1.56a31.52,31.52,0,0,1,6.7-3.94l-2.39,1a38.28,38.28,0,0,1,9.3-2.49l-2.65.36a69.84,69.84,0,0,1,18,.19l-2.66-.35a77.53,77.53,0,0,1,19.53,5.41l-2.39-1a127.19,127.19,0,0,1,20.41,11.42q13.42,8.89,26.84,17.82c12.53,8.34,25.08,16.66,37.43,25.27,4,2.79,8,5.61,11.88,8.6l-2-1.56a82.59,82.59,0,0,1,13.37,13.77c1.87,2.31,3.7,4.66,5.52,7l-1.56-2c8.2,10.62,16.14,21.45,24.09,32.26,11.68,15.92,23.72,31.66,34.58,48.15a178.34,178.34,0,0,1,15.69,28.29l-1-2.39a78.58,78.58,0,0,1,5.61,19.46l-.35-2.66a50.53,50.53,0,0,1,.09,13.06l.36-2.66a31.76,31.76,0,0,1-1.94,7.49l1-2.39a20.36,20.36,0,0,1-2.52,4.36l1.56-2a22.64,22.64,0,0,1-3.49,3.43l2-1.56a25.45,25.45,0,0,1-5.53,3.22l2.39-1a34.75,34.75,0,0,1-8.86,2.31l2.66-.35a59,59,0,0,1-15.2-.23l2.66.36a69.52,69.52,0,0,1-11.57-2.48c-5-1.57-11.13,1.86-12.3,7a10.22,10.22,0,0,0,7,12.3,84.17,84.17,0,0,0,15,2.94,62.79,62.79,0,0,0,10.44.46,50,50,0,0,0,13.19-2.16,36.72,36.72,0,0,0,13.41-7.64,30.08,30.08,0,0,0,8.86-15.94c2.35-10.87,1.06-22.25-2.31-32.77-7.2-22.44-21.56-42-35.3-60.83-11.66-16-23.31-32-35.18-47.8-6.73-9-13.4-18.18-21-26.48-5-5.49-11.27-9.76-17.31-14-11.63-8.25-23.52-16.13-35.38-24q-13.38-8.92-26.8-17.82c-7.14-4.73-14.21-9.59-21.93-13.35a90.77,90.77,0,0,0-32.63-9.2c-10.76-.88-22.06.12-31.64,5.45-10,5.55-16.44,15.51-18.8,26.54-2.43,11.32-1.37,22.46.63,33.75,1,5.74,2.2,11.45,3,17.22l-.36-2.65a70.56,70.56,0,0,1,.46,17.24c-.27,2.38,1.31,5.46,2.93,7.08a10,10,0,0,0,14.14,0,11.63,11.63,0,0,0,2.93-7.08Z" transform="translate(-283.68 -264.3)"/><path class="cls-3" d="M1705,1294.94q-.75-14.46-1.51-28.93c-.5-9.55-1.25-19.14-1.43-28.7a83.55,83.55,0,0,1,.65-12.75l-.36,2.66a40.43,40.43,0,0,1,2.51-9.93l-1,2.39a18.9,18.9,0,0,1,2.33-4.13l-1.57,2a13.18,13.18,0,0,1,2.27-2.27l-2,1.56a14.91,14.91,0,0,1,3.21-1.86l-2.39,1a20.34,20.34,0,0,1,5.13-1.35l-2.65.36a37.63,37.63,0,0,1,10,.18l-2.66-.36a92.9,92.9,0,0,1,19.84,5.38c2.16.8,4.31,1.66,6.44,2.56l-2.39-1a278.13,278.13,0,0,1,31.76,16.2c11.91,7,23.46,14.52,34.72,22.48q10.23,7.23,20.14,14.89l-2-1.56q19.29,14.91,37.35,31.34c11.55,10.53,22.68,21.53,33.14,33.15,5.38,6,10.59,12.16,15.52,18.53l-1.56-2a187,187,0,0,1,18.92,29c1.46,2.87,2.8,5.8,4.06,8.76l-1-2.39a69.69,69.69,0,0,1,5.07,17.18l-.36-2.66a37.6,37.6,0,0,1,.12,9.77l.36-2.66a28,28,0,0,1-1.85,6.89l1-2.39a24.22,24.22,0,0,1-3.07,5.25l1.57-2a26.35,26.35,0,0,1-4.45,4.38l2-1.57a34.1,34.1,0,0,1-7.35,4.2l2.38-1a56.82,56.82,0,0,1-14.28,3.67l2.65-.36a84.74,84.74,0,0,1-22.16.06l2.66.35a69.63,69.63,0,0,1-17.45-4.85l2.39,1a81.18,81.18,0,0,1-17.64-10.42l2,1.56a91.81,91.81,0,0,1-10.11-9.1c-3.63-3.78-10.54-3.92-14.14,0a10.19,10.19,0,0,0,0,14.14,97,97,0,0,0,22.39,17.47,81.73,81.73,0,0,0,35.92,10.39,91.66,91.66,0,0,0,24.89-2c11.08-2.53,22.16-8.43,27.87-18.66,7.46-13.35,4.78-29.39-.77-42.9a153.18,153.18,0,0,0-11.31-22.45,240.31,240.31,0,0,0-15.45-21.79c-5.59-7.16-11.51-14-17.66-20.73q-9.89-10.74-20.46-20.83-10.89-10.44-22.35-20.27t-23.67-19.34c-8.48-6.58-17.08-13-25.88-19.14-7.72-5.39-15.58-10.59-23.6-15.53-7.37-4.55-14.88-8.89-22.56-12.9q-11.14-5.82-22.8-10.53a117.42,117.42,0,0,0-17.81-5.76c-5.47-1.24-11.28-2.19-16.9-1.75-5.81.45-11.24,1.91-15.91,5.51-7.51,5.81-9.87,15.2-11,24.19-.92,7-.65,14-.29,21l1.32,25.19,1.26,24.19a10.52,10.52,0,0,0,2.93,7.07,10.15,10.15,0,0,0,7.07,2.93,10,10,0,0,0,10-10Z" transform="translate(-283.68 -264.3)"/><path class="cls-3" d="M1933.05,1377.36a161.93,161.93,0,0,0,51.53,2.72c2.74-.31,5.06-.91,7.07-2.93a10,10,0,0,0,0-14.14c-1.82-1.68-4.49-3.22-7.07-2.93a154,154,0,0,1-37.47-.38l2.66.35c-3.82-.52-7.63-1.18-11.4-2a10.66,10.66,0,0,0-7.71,1,10.23,10.23,0,0,0-4.59,6,10,10,0,0,0,7,12.3Z" transform="translate(-283.68 -264.3)"/><path class="cls-3" d="M2030.1,1125.16c-29.06-.36-60.8,4.27-82.79,25-23.67,22.29-27,56.57-21.44,86.95,2.89,15.85,8.67,30.81,15.17,45.48,3.44,7.77,7.12,15.42,10.75,23.1q2.73,5.74,5.38,11.53,1.24,2.71,2.44,5.46c.4.91.8,1.82,1.19,2.74a7.08,7.08,0,0,1,.59,1.37l-.43-1c.15.34.29.69.43,1a207.76,207.76,0,0,1,8.41,23.94q1.71,6.21,2.92,12.53.6,3.13,1.08,6.29c.08.53.15,1.06.23,1.58.4,2.58-.17-1.52,0,.11.14,1.19.3,2.38.43,3.57,2,18,1.59,36.12.94,54.17-1.35,37.53-2.86,75-4.3,112.57l-.54,14.27c-.2,5.23,4.74,10.23,10,10a10.22,10.22,0,0,0,10-10l4.25-111.2c1.36-35.75,3.27-72.21-8-106.72-5.34-16.34-12.8-31.9-20.15-47.4-3.53-7.45-7.05-14.91-10.29-22.48-.13-.32-.76-1.82-.23-.53s-.08-.22-.21-.54c-.39-.92-.76-1.84-1.13-2.77-.8-2-1.56-4-2.3-5.94q-1.87-5-3.43-10.2a154.55,154.55,0,0,1-4.76-21.46c-.17-1.12.39-.57.09.71a6.81,6.81,0,0,0-.16-1.31c-.11-.87-.2-1.73-.29-2.6-.17-1.74-.3-3.48-.4-5.22-.2-3.66-.23-7.33-.07-11q.11-2.55.36-5.1c.08-.84.23-1.69.27-2.53,0,.19-.37,2.5-.1.78l.24-1.56a82.3,82.3,0,0,1,2.3-10.06c.48-1.59,1-3.16,1.58-4.71.29-.77.63-1.53.91-2.3-.07.18-1,2.21-.27.69l.65-1.41a62.75,62.75,0,0,1,5.11-8.85c.24-.34,1.51-1.69,1.46-2,.07.44-1.29,1.62-.4.53.26-.32.52-.65.79-1q1.78-2.13,3.75-4.1c1.08-1.07,2.2-2.11,3.35-3.1.61-.53,1.24-1,1.86-1.55,1-.82-1.64,1.22-.6.46l1.21-.9a72.35,72.35,0,0,1,8.7-5.33q2.14-1.11,4.34-2.08l1.11-.48c-.16.07-2.28.91-.71.31.85-.33,1.69-.66,2.55-1a109.52,109.52,0,0,1,19.62-5l2.46-.38c2.51-.37-2.09.25.43-.06,1.75-.22,3.51-.41,5.27-.56,3.4-.31,6.82-.51,10.24-.62s6.76-.13,10.14-.09c5.23.06,10.24-4.65,10-10a10.19,10.19,0,0,0-10-10Z" transform="translate(-283.68 -264.3)"/><path class="cls-3" d="M2020.45,1137.82c12.1,66.36,30,131.69,54.62,194.52,26.46,67.59,60.64,131.68,91.44,197.3,13.62,29,26.39,57.19,35.74,88,1.94,6.39,3.68,12.84,5.13,19.36.64,2.89,1.22,5.8,1.72,8.72.25,1.41.46,2.82.68,4.23.31,1.92,0,.2,0-.16q.21,1.64.39,3.27a110.83,110.83,0,0,1,.62,15.88q-.08,1.82-.21,3.63c-.05.59-.11,1.18-.17,1.77,0,.19-.29,2.52-.07.77.21-1.6-.22,1.35-.3,1.82s-.2,1.25-.29,1.88a307.53,307.53,0,0,0-3.1,34.42c-.72,19.19-.66,39.19,2.4,58.19,2.12,13.13,5.35,26.28,10.83,38.42,5.4,12,13.23,22.77,21.7,32.74,17.76,20.9,39.68,38.24,62.17,53.76a501.92,501.92,0,0,0,48.49,29.61c1.54.82,3.09,1.64,4.65,2.44,4.8,2.46,10.85,1.25,13.68-3.59,2.62-4.47,1.24-11.21-3.59-13.68-13-6.67-25.62-14.12-37.94-22-10.66-6.8-21.09-14-31.16-21.63-1.63-1.23-3.67-2.81-6.4-5s-5.34-4.36-7.95-6.59q-7.7-6.57-14.91-13.66c-4.83-4.76-9.47-9.72-13.82-14.92-2.45-2.92-3.17-3.85-4.83-6.11q-3-4.05-5.69-8.32c-1.58-2.51-3.08-5.08-4.46-7.71-.61-1.15-1.2-2.32-1.76-3.5-.31-.64-2.05-4.72-1.26-2.71a140.24,140.24,0,0,1-6.3-22c-.66-3-1.28-6-1.84-9.06-.11-.58-.22-1.16-.31-1.74.42,2.72,0-.59-.07-1.27-.17-1.77-.34-3.55-.49-5.33q-1.25-14.4-1.38-28.86a344,344,0,0,1,2-41.72c.11-1,.24-2.08.37-3.12.35-2.9-.33,2.13.06-.45.2-1.42.44-2.83.66-4.25a102.68,102.68,0,0,0,1.34-16.7c-.1-12.22-2.17-24.49-5-36.36-7.08-29.65-19.19-58.08-31.61-85.83-30.2-67.39-65.94-132.21-94-200.58a1028,1028,0,0,1-54.76-179.83q-3.06-14.64-5.73-29.36c-1-5.32-7.43-8.33-12.3-7-5.59,1.54-8,7-7,12.31Z" transform="translate(-283.68 -264.3)"/><path class="cls-3" d="M895,1169.79c5.1,11.48,10.37,22.91,15.27,34.48l-1-2.39a52.59,52.59,0,0,1,3.91,13.14l-.36-2.66a41.13,41.13,0,0,1-.08,10.28l.36-2.66a59.45,59.45,0,0,1-4.18,14.73l1-2.39a82.69,82.69,0,0,1-10.71,18.24l1.56-2A85,85,0,0,1,886,1263.33l2-1.57A80.81,80.81,0,0,1,870.5,1272l2.38-1a58.76,58.76,0,0,1-14.63,4.45l2.65-.35a8,8,0,0,1-1.38,0l2.66.36a3.46,3.46,0,0,1-.82-.23l2.39,1a6.88,6.88,0,0,1-1.32-.81l2,1.57c-2.39-2-4.55-4.36-6.79-6.54a10.33,10.33,0,0,0-7.07-2.93,10.18,10.18,0,0,0-7.07,2.93c-3.62,3.94-4,10.24,0,14.14,2.24,2.18,4.4,4.52,6.79,6.54a15.1,15.1,0,0,0,9.67,4,25.72,25.72,0,0,0,6.39-1,87,87,0,0,0,16.07-5.71,88.8,88.8,0,0,0,25.91-18.33,90,90,0,0,0,18.49-26.93,87,87,0,0,0,3.93-10.44,65.81,65.81,0,0,0,2.07-11,46.62,46.62,0,0,0-2.31-20c-2.53-7.41-6.07-14.52-9.24-21.67l-9-20.34c-.95-2.14-3.82-4-6-4.59a10.2,10.2,0,0,0-7.7,1,10,10,0,0,0-4.6,6l-.36,2.66a10,10,0,0,0,1.37,5Z" transform="translate(-283.68 -264.3)"/><path class="cls-3" d="M1462.89,1323.17a7.74,7.74,0,0,1-.07.83l.35-2.66a11,11,0,0,1-.67,2.37l1-2.39c-1.53,3.53-4.14,6.54-6,9.89a54.6,54.6,0,0,0-5.39,12.78,36.27,36.27,0,0,0,2.77,26.79,27.55,27.55,0,0,0,9.45,10,24.45,24.45,0,0,0,14.74,3.53,33.81,33.81,0,0,0,15.06-4.9,56.75,56.75,0,0,0,10.46-8.66c6.84-7.07,13.32-14.94,18-23.63a10.49,10.49,0,0,0,1-7.7,10.18,10.18,0,0,0-4.6-6c-4.65-2.46-11-1.33-13.68,3.59a80.29,80.29,0,0,1-7.16,10.9l1.57-2c-4.42,5.68-9.27,11.42-15,15.86l2-1.56a30.19,30.19,0,0,1-6.49,3.87l2.39-1a23.27,23.27,0,0,1-5.25,1.47l2.66-.36a18.64,18.64,0,0,1-4.95,0l2.66.36a16.56,16.56,0,0,1-3.59-1l2.39,1a16.27,16.27,0,0,1-3.31-1.91l2,1.57a18.06,18.06,0,0,1-3.13-3.17l1.57,2a22.22,22.22,0,0,1-2.62-4.59l1,2.39a25.88,25.88,0,0,1-1.6-5.93l.36,2.66a26.93,26.93,0,0,1,0-6.89l-.36,2.65a37.49,37.49,0,0,1,2.65-9.4l-1,2.39a59.65,59.65,0,0,1,5.26-9.52,46.28,46.28,0,0,0,2.81-4.41,22.34,22.34,0,0,0,2.64-9.37,10,10,0,0,0-17.07-7.07,11.06,11.06,0,0,0-2.93,7.07Z" transform="translate(-283.68 -264.3)"/><path class="cls-3" d="M1825.75,1559.8l-1.18-.46,2.39,1a46.23,46.23,0,0,1-10.15-6.08l2,1.57a110.59,110.59,0,0,1-8.89-7.87,83.42,83.42,0,0,1-8-8.55l1.56,2a28.86,28.86,0,0,1-3.66-6.17l1,2.39a22.27,22.27,0,0,1-1.4-5.19l.36,2.66a17.83,17.83,0,0,1,0-4.5l-.36,2.66a15.16,15.16,0,0,1,1-3.48l-1,2.39a14.58,14.58,0,0,1,1.6-2.69l-1.56,2a14.58,14.58,0,0,1,2.41-2.43l-2,1.56a17.39,17.39,0,0,1,3.87-2.25l-2.39,1a19.05,19.05,0,0,1,4.34-1.16l-2.66.35a21.29,21.29,0,0,1,5.35.05l-2.66-.35a31.23,31.23,0,0,1,7.56,2.21l-2.39-1c7.06,3.06,13.61,7.58,19.69,12.26l-2-1.57q5,3.87,9.58,8.19a10.42,10.42,0,0,0,7.07,2.93,10.18,10.18,0,0,0,7.07-2.93c3.57-3.89,4.07-10.32,0-14.14a140,140,0,0,0-23-17.61,63.82,63.82,0,0,0-14-6.64,31.8,31.8,0,0,0-16.28-.79,25.72,25.72,0,0,0-12.78,7.13,24.12,24.12,0,0,0-6.56,16.12c-.28,11.08,6.53,20.16,14,27.55a129.42,129.42,0,0,0,10.7,9.71,72.76,72.76,0,0,0,7.63,5.43,53.22,53.22,0,0,0,8.45,3.94c2.29.87,5.67.18,7.71-1a10.17,10.17,0,0,0,4.59-6,10.05,10.05,0,0,0-1-7.7,11.33,11.33,0,0,0-6-4.6Z" transform="translate(-283.68 -264.3)"/><path class="cls-3" d="M1885.45,1537.67c-.44-.53-.87-1.06-1.29-1.6l1.56,2a69.85,69.85,0,0,1-9-15.39l1,2.39a71.94,71.94,0,0,1-4.85-17.76l.36,2.65a35.83,35.83,0,0,1-.32-9.25l-.36,2.66a15.74,15.74,0,0,1,1-3.81l-1,2.39a9.8,9.8,0,0,1,1.06-1.86l-1.57,2a7.79,7.79,0,0,1,1.23-1.27l-2,1.56a7.81,7.81,0,0,1,1.27-.77l-2.38,1a6.86,6.86,0,0,1,1.84-.49l-2.66.35a8.33,8.33,0,0,1,1.58,0l-2.66-.36a12,12,0,0,1,2.75.8l-2.39-1a37.06,37.06,0,0,1,6.1,3.81c1.91,1.37,3.8,2.76,5.66,4.19l-2-1.56a74,74,0,0,1,13.37,12.91l-1.56-2c1.09,1.45,2.11,2.94,3,4.49a10.42,10.42,0,0,0,6,4.59,10.2,10.2,0,0,0,7.7-1c4.5-2.9,6.49-8.89,3.59-13.68a69.28,69.28,0,0,0-15.88-17.74c-3.34-2.71-6.8-5.29-10.3-7.79-4.22-3-8.68-5.42-14-5.66a16.42,16.42,0,0,0-14.55,8.39,26.3,26.3,0,0,0-3,12.9,67.53,67.53,0,0,0,1.49,12.58,70,70,0,0,0,2.87,10.52,82.24,82.24,0,0,0,14.19,24.92c1.54,1.86,4.75,2.92,7.07,2.92a10.21,10.21,0,0,0,7.07-2.92,10.07,10.07,0,0,0,2.93-7.08,11.42,11.42,0,0,0-2.93-7.07Z" transform="translate(-283.68 -264.3)"/><path class="cls-3" d="M1915.68,1428.3q-2.07-4-3.82-8.14l1,2.39a113.21,113.21,0,0,1-7.72-28.29l.36,2.66a32.11,32.11,0,0,1-.38-8l-.35,2.65a11.3,11.3,0,0,1,.77-2.9l-1,2.39a8.82,8.82,0,0,1,.8-1.36l-1.56,2a6.47,6.47,0,0,1,1.12-1.1l-2,1.56a7,7,0,0,1,1-.58l-2.39,1a20.47,20.47,0,0,1,5.08-1.09l-2.66.35a23,23,0,0,1,5.56-.18l-2.66-.36a16.9,16.9,0,0,1,4,1.09l-2.39-1a30.63,30.63,0,0,1,6.44,4l-2-1.56c6.92,5.4,13.52,11.24,20.26,16.87a10.7,10.7,0,0,0,7.07,2.93,10.18,10.18,0,0,0,7.07-2.93,10.07,10.07,0,0,0,2.93-7.07c-.12-2.51-.92-5.39-2.93-7.07-6-5-11.93-10-17.93-15-3.11-2.59-6.33-5.34-10-7.07a26.29,26.29,0,0,0-14.39-2.73c-5.42.63-11.08,1.28-15,5.58-3.44,3.78-4.79,8.66-4.83,13.68a71.46,71.46,0,0,0,1.41,12.1c.61,3.57,1.38,7.12,2.33,10.62a123.55,123.55,0,0,0,9.67,24.6c2.42,4.65,9.3,6.41,13.69,3.59a10.23,10.23,0,0,0,3.58-13.68Z" transform="translate(-283.68 -264.3)"/><path class="cls-3" d="M2002.3,1133.08a41,41,0,0,0-3.28,9.43,55.29,55.29,0,0,0-1.06,9.86,97.67,97.67,0,0,0,1.91,18.11c.94,5.24,1.77,10.67,3.71,15.66a36.79,36.79,0,0,0,4.58,8.85,63.4,63.4,0,0,0,6.63,7.63c4.69,4.54,9.53,8.92,14.3,13.38a10.5,10.5,0,0,0,7.07,2.92,10.21,10.21,0,0,0,7.07-2.92,10,10,0,0,0,0-14.15l-10.18-9.5a83.54,83.54,0,0,1-8.79-9l1.57,2a28.32,28.32,0,0,1-3.56-6l1,2.38a55.84,55.84,0,0,1-3.07-11.08c-.73-3.73-1.43-7.47-1.94-11.24l.35,2.65a57.55,57.55,0,0,1-.27-15.12l-.36,2.66a33.38,33.38,0,0,1,2.06-7.74l-1,2.39c.16-.4.34-.79.52-1.18a10.79,10.79,0,0,0,1-7.7,10,10,0,0,0-12.3-7c-2.34.76-4.9,2.27-6,4.6Z" transform="translate(-283.68 -264.3)"/></svg>